#!OML:ASF G:\JayActor3\Patient Classification 1\Patient 1\Session 2\male.ASF
:FULLY-SPECIFIED
:DEGREES
1404
root 1.78178 16.809 -5.63367 1370.01 -265.181 -1150.73
lowerback 0.480563 -2.72732 -6.03514
upperback -1.82851 -3.71999 -0.668126
thorax -1.81676 -1.75725 2.74961
lowerneck -17.2208 -0.84082 -0.842376
upperneck 19.1816 -1.87542 4.71524
head 8.91056 -0.37424 1.51835
rclavicle -5.8921e-015 3.08116e-015
rhumerus -66.3542 38.4189 -107.068
rradius 58.2625
rwrist -11.0089
rhand -32.7523 3.25443
rfingers 7.12502
rthumb -5.97506 -26.6413
lclavicle -5.8921e-015 3.08116e-015
lhumerus -31.8907 -43.9414 89.8258
lradius 92.7021
lwrist 20.3456
lhand -23.2533 13.6433
lfingers 7.12502
lthumb 3.19846 43.5991
rfemur -35.2871 9.60057 15.2245
rtibia 38.3232
rfoot -24.0075 -8.52979
rtoes 0.116643
lfemur 13.5638 6.0254 -26.321
ltibia 18.443
lfoot -4.80793 1.3065
ltoes -21.1774
1405
root 2.14061 16.8265 -5.63936 1374.28 -264.966 -1146.39
lowerback 0.196004 -2.77272 -5.93581
upperback -1.76243 -3.75544 -0.698801
thorax -1.59328 -1.7846 2.64558
lowerneck -17.0948 -0.950339 -0.904851
upperneck 19.589 -1.99383 4.61238
head 9.03051 -0.437024 1.48301
rclavicle 2.86995e-015 1.39149e-014
rhumerus -66.5195 37.8676 -106.988
rradius 58.675
rwrist -10.8929
rhand -33.0044 3.48671
rfingers 7.12502
rthumb -6.21843 -26.402
lclavicle 2.86995e-015 1.39149e-014
lhumerus -32.3826 -44.4508 90.4934
lradius 93.1925
lwrist 20.8245
lhand -22.6776 13.0861
lfingers 7.12502
lthumb 3.7544 43.0328
rfemur -33.9617 9.80353 15.1194
rtibia 36.097
rfoot -23.8783 -7.71863
rtoes 0.799483
lfemur 12.6893 6.11946 -26.1625
ltibia 21.9154
lfoot -3.08063 1.71331
ltoes -21.1047
1406
root 2.49851 16.8424 -5.64488 1378.21 -264.74 -1142.36
lowerback -0.0783982 -2.80054 -5.80825
upperback -1.68041 -3.76825 -0.734206
thorax -1.3634 -1.80126 2.52089
lowerneck -16.9576 -1.05618 -0.944511
upperneck 20.012 -2.11077 4.50367
head 9.15395 -0.497508 1.44207
rclavicle 3.86947e-014 1.63997e-014
rhumerus -66.4504 37.3205 -106.818
rradius 59.1318
rwrist -10.7483
rhand -33.288 3.73905
rfingers 7.12502
rthumb -6.49224 -26.1414
lclavicle 3.86947e-014 1.63997e-014
lhumerus -33.0197 -44.8916 91.291
lradius 93.4187
lwrist 21.2451
lhand -22.105 12.5852
lfingers 7.12502
lthumb 4.3074 42.5214
rfemur -32.6063 9.71175 15.2168
rtibia 34.6396
rfoot -23.262 -6.90566
rtoes 2.39737
lfemur 11.3863 6.46173 -25.8727
ltibia 26.056
lfoot -0.859124 2.16611
ltoes -20.2373
1407
root 2.85389 16.8558 -5.65024 1381.89 -264.536 -1138.52
lowerback -0.304286 -2.81019 -5.6367
upperback -1.57624 -3.76059 -0.760262
thorax -1.14193 -1.80817 2.38345
lowerneck -16.8007 -1.15463 -0.95791
upperneck 20.4211 -2.22093 4.38781
head 9.26882 -0.553755 1.39488
rclavicle 4.97583e-015 -3.67752e-015
rhumerus -66.139 36.8127 -106.576
rradius 59.6221
rwrist -10.5748
rhand -33.6099 4.02938
rfingers 7.12502
rthumb -6.80304 -25.8413
lclavicle 4.97583e-015 -3.67752e-015
lhumerus -33.7921 -45.2481 92.2047
lradius 93.4218
lwrist 21.51
lhand -21.5838 12.1602
lfingers 7.12502
lthumb 4.81067 42.0856
rfemur -31.186 9.41927 15.5052
rtibia 33.8653
rfoot -22.2853 -6.26752
rtoes 4.58138
lfemur 9.71861 6.93576 -25.4685
ltibia 30.7555
lfoot 1.94746 2.84468
ltoes -18.463
1408
root 3.20576 16.8673 -5.65516 1385.39 -264.385 -1134.78
lowerback -0.443138 -2.79611 -5.4074
upperback -1.44544 -3.72798 -0.768917
thorax -0.946316 -1.80274 2.23606
lowerneck -16.6123 -1.2478 -0.944879
upperneck 20.7909 -2.32862 4.2736
head 9.3642 -0.60735 1.34368
rclavicle 1.01132e-014 2.29596e-014
rhumerus -65.5833 36.3619 -106.286
rradius 60.132
rwrist -10.3585
rhand -33.9524 4.34101
rfingers 7.12502
rthumb -7.13358 -25.5188
lclavicle 1.01132e-014 2.29596e-014
lhumerus -34.6895 -45.5243 93.2157
lradius 93.2371
lwrist 21.5714
lhand -21.1565 11.8152
lfingers 7.12502
lthumb 5.22324 41.7308
rfemur -29.6842 9.045 15.9545
rtibia 33.6328
rfoot -21.1006 -6.06363
rtoes 6.79656
lfemur 7.74613 7.41404 -24.9787
ltibia 35.8884
lfoot 5.40731 3.87991
ltoes -15.6328
1409
root 3.55319 16.8771 -5.65913 1388.74 -264.318 -1131.12
lowerback -0.45728 -2.75177 -5.11661
upperback -1.28276 -3.66396 -0.752181
thorax -0.792154 -1.78137 2.08676
lowerneck -16.4011 -1.34175 -0.918037
upperneck 21.1119 -2.44249 4.17533
head 9.43872 -0.661806 1.29439
rclavicle -2.51152e-014 -9.93923e-016
rhumerus -64.7775 35.9932 -105.971
rradius 60.64
rwrist -10.0902
rhand -34.3448 4.67336
rfingers 7.12502
rthumb -7.51238 -25.1732
lclavicle -2.51152e-014 -9.93923e-016
lhumerus -35.6887 -45.715 94.2967
lradius 92.8886
lwrist 21.4387
lhand -20.8531 11.551
lfingers 7.12502
lthumb 5.51616 41.4592
rfemur -28.1125 8.69215 16.5359
rtibia 33.7762
rfoot -19.8852 -6.38573
rtoes 8.75343
lfemur 5.52618 7.80085 -24.4307
ltibia 41.3173
lfoot 9.34128 5.22741
ltoes -12.0978
